<?xml version="1.0" standalone="no"?>
<!DOCTYPE svg PUBLIC "-//W3C//DTD SVG 20010904//EN"
 "http://www.w3.org/TR/2001/REC-SVG-20010904/DTD/svg10.dtd">
<svg version="1.0" xmlns="http://www.w3.org/2000/svg"
 width="700.000000pt" height="700.000000pt" viewBox="0 0 700.000000 700.000000"
 preserveAspectRatio="xMidYMid meet">
<metadata>
Created by potrace 1.11, written by Peter Selinger 2001-2013
</metadata>
<g transform="translate(0.000000,700.000000) scale(0.100000,-0.100000)"
fill="#000000" stroke="none">
<path d="M1972 6803 c-63 -31 -65 -41 -138 -664 -37 -316 -69 -576 -70 -577
-2 -2 -69 29 -151 70 -177 89 -276 123 -358 123 l-60 0 -22 -45 c-73 -146
-125 -680 -125 -1285 0 -331 11 -511 38 -603 14 -49 19 -55 62 -75 43 -20 63
-22 224 -22 l178 0 -5 -30 c-5 -27 -95 -790 -95 -800 0 -3 -146 -5 -325 -5
l-325 0 -4 -22 c-16 -72 -28 -229 -32 -413 -6 -231 2 -283 46 -317 31 -23 173
-59 372 -94 84 -15 154 -28 156 -29 1 -1 -9 -58 -22 -126 -40 -197 -72 -477
-121 -1041 l-6 -67 38 -10 c149 -40 184 -45 323 -45 135 -1 148 1 195 24 38
19 58 38 81 78 59 99 157 436 239 825 18 87 35 160 37 161 1 2 325 -47 718
-108 l715 -111 -3 -30 c-2 -16 -41 -271 -87 -565 -45 -294 -80 -550 -78 -567
6 -41 45 -80 92 -93 20 -5 262 -44 539 -86 478 -73 504 -75 522 -59 10 9 21
29 25 44 3 14 25 262 50 550 25 288 47 526 49 528 2 2 173 -30 379 -71 206
-42 399 -78 429 -82 l55 -6 17 36 c84 176 178 1088 148 1428 -15 162 -28 194
-97 228 -45 22 -65 25 -197 28 -103 3 -195 -1 -300 -14 -131 -16 -295 -21
-306 -9 -2 2 10 166 27 365 16 199 27 369 24 379 -22 70 -45 84 -177 108 -53
9 -94 18 -92 21 2 2 334 21 736 42 793 43 761 39 799 100 27 45 157 695 145
728 -19 53 -48 63 -554 170 -267 57 -486 105 -488 107 -2 2 8 79 22 172 60
391 94 742 82 826 -10 63 -55 114 -144 160 -209 108 -534 149 -632 79 -71 -51
-146 -319 -235 -836 -19 -109 -36 -200 -37 -201 -3 -2 -1081 226 -1086 230 -2
2 101 310 227 685 127 375 231 695 231 711 0 40 -30 66 -82 73 -24 3 -205 10
-403 16 -198 6 -490 15 -650 20 -407 14 -473 13 -513 -7z m1888 -3124 c0 -14
-118 -766 -125 -795 -4 -19 -10 -20 -117 -17 -62 2 -374 8 -692 13 -319 6
-582 12 -584 15 -2 2 52 167 120 367 l123 363 75 2 c41 0 174 6 295 13 293 16
854 47 883 49 12 0 22 -4 22 -10z"/>
</g>
</svg>
