<?xml version="1.0" encoding="UTF-8" standalone="no"?><!-- Generator: Gravit.io --><svg xmlns="http://www.w3.org/2000/svg" xmlns:xlink="http://www.w3.org/1999/xlink" style="isolation:isolate" viewBox="0 0 558.9 410.2" width="558.9pt" height="410.2pt"><defs><clipPath id="_clipPath_gBOXCbvEBdW51rO0YBk73L87MkBHbuwF"><rect width="558.9" height="410.2"/></clipPath></defs><g clip-path="url(#_clipPath_gBOXCbvEBdW51rO0YBk73L87MkBHbuwF)"><g><g opacity="0.18"><path d=" M 558.764 278.345 C 558.213 289.181 555.442 299.789 550.624 309.511 C 542.768 325.114 530.543 337.861 516.073 347.718 C 508 353.179 499.378 357.778 490.348 361.442 C 485.377 363.475 480.305 365.25 475.152 366.761 C 443.945 375.892 411.016 376.34 378.534 376.72 L 149.926 379.379 L 149.926 379.379 L 119.86 379.725 C 110.294 379.84 100.546 379.908 90.899 379.379 C 72.494 378.389 54.428 375.248 38.587 366.204 C 30.427 361.521 23.301 355.232 17.638 347.718 C 6.899 333.546 1.092 315.474 0.814 297.462 L 0.814 295.569 C 0.929 277.992 6.357 260.659 17.638 247.125 C 18.358 246.27 19.09 245.422 19.857 244.601 C 21.451 242.878 23.195 241.209 25.026 239.54 C 36.688 229.018 52.088 219.589 59.068 206.034 C 71.347 182.182 56.036 172.447 54.021 149.049 C 50.629 109.701 90.465 64.486 122.824 46.434 C 157.62 26.977 201.444 24.644 238.119 40.254 C 276.923 56.779 313.136 92.768 354.071 82.62 C 367.232 79.357 379.321 71.324 392.882 71.087 C 417.942 70.605 435.336 96.093 443.138 119.932 C 450.939 143.771 455.173 170.676 473.72 187.548 C 487.03 199.65 505.381 204.203 521.5 212.242 C 526.396 214.615 531.031 217.491 535.332 220.823 C 544.83 228.326 551.356 238.509 555.115 249.825 C 558.098 259.021 559.336 268.694 558.764 278.345 L 558.764 278.345 Z " fill="rgb(239,95,64)"/></g><g opacity="0.18"><path d=" M 516.215 347.942 C 503.645 356.372 489.839 362.794 475.294 366.978 C 446.123 375.519 415.452 376.475 385.067 376.855 L 378.697 376.937 L 294.765 377.92 L 252.134 378.423 L 157.246 379.528 L 150.049 379.61 L 150.049 379.61 L 119.975 379.962 C 110.41 380.078 100.668 380.139 91.014 379.61 C 72.589 378.646 54.523 375.505 38.669 366.489 C 30.539 361.787 23.445 355.487 17.815 347.969 L 516.215 347.942 Z " fill="rgb(239,95,64)"/></g><g opacity="0.05"><path d=" M 423.708 363.179 C 423.905 366.008 421.897 368.742 422.467 371.516 C 423.308 375.587 427.955 374.908 432.121 374.603 C 442.242 373.775 455.186 372.229 465.043 369.685 C 474.168 367.324 480.809 365.044 489.507 362.222 C 490.185 361.998 489.975 360.072 490.009 359.359 C 490.063 358.416 488.815 358.064 487.872 358.003 C 479.269 357.724 470.572 358.003 462.133 356.307 C 458.341 355.533 454.623 354.353 450.777 353.912 C 446.028 353.376 441.279 353.959 436.53 353.6 C 433.091 353.335 424.712 349.57 421.517 351.117 C 416.728 353.484 423.471 359.76 423.708 363.179 Z " fill="rgb(0,4,5)"/></g><g opacity="0.05"><path d=" M 224.401 365.73 C 234.34 368.518 242.379 374.42 251.13 378.992 Q 203.683 379.535 156.242 380.091 C 158.895 377.561 161.859 375.377 165.062 373.592 C 175.461 367.772 187.679 366.428 199.524 365.194 C 207.801 364.325 216.355 363.477 224.401 365.73 Z " fill="rgb(0,4,5)"/></g><g opacity="0.05"><path d=" M 385.718 374.088 C 385.574 374.994 385.185 375.843 384.592 376.543 C 384.382 376.816 384.205 377.112 384.063 377.425 L 377.693 377.507 L 293.747 378.47 C 295.269 377.288 296.649 375.934 297.858 374.433 C 299.609 372.263 301.006 369.8 303.041 367.914 C 309.052 362.338 318.57 363.376 326.358 365.879 C 328.726 366.652 331.107 367.534 333.603 367.5 C 338.027 367.446 341.826 364.57 345.815 362.589 C 358.345 356.334 374.931 359.685 384.049 370.316 C 384.945 371.415 385.833 372.69 385.718 374.088 Z " fill="rgb(0,4,5)"/></g><path d=" M 340.944 278.976 L 325.429 355.303 L 315.002 354.109 L 313.801 353.966 C 313.801 353.966 316.786 331.348 318.075 299.09 C 318.923 277.721 322.579 260.272 324.33 245.768 C 324.873 241.772 325.781 237.835 327.043 234.005 C 329.16 227.587 332.382 221.583 336.48 222.2 C 345.53 223.557 357.449 231.379 359.023 236.277 C 361.764 244.825 340.944 278.976 340.944 278.976 Z " fill="rgb(37,35,58)"/><g opacity="0.24"><path d=" M 330.096 234.201 C 330.096 234.201 323.142 288.073 322.919 304.877 C 322.695 321.681 315.782 353.966 315.782 353.966 L 314.981 354.109 L 313.78 353.966 C 313.78 353.966 316.765 331.348 318.054 299.09 C 318.902 277.721 322.559 260.272 324.309 245.768 C 324.853 241.772 325.761 237.835 327.023 234.005 C 328.051 233.951 329.083 234.017 330.096 234.201 L 330.096 234.201 Z " fill="rgb(255,255,255)"/></g><path d=" M 376.512 355.18 L 364.979 355.18 L 364.979 355.113 C 364.667 353.559 358.874 324.863 350.685 304.077 C 344.58 288.575 341.629 257.002 340.509 240.843 C 340.062 234.737 339.885 230.83 339.885 230.83 C 339.885 230.83 363.304 223.917 366.343 226.983 C 369.382 230.05 372.835 243.943 372.835 243.943 C 372.835 243.943 364.817 298.961 369.918 302.693 C 375.02 306.424 376.512 355.18 376.512 355.18 Z " fill="rgb(63,61,86)"/><path d=" M 194.022 135.284 C 194.022 135.284 176.967 140.541 170.061 189.766 C 167.565 207.513 183.439 238.862 183.439 238.862 L 194.022 135.284 Z " fill="rgb(239,95,64)"/><linearGradient id="_lgradient_0" x1="1.0327615185323955" y1="0.47963059994760293" x2="-1.7697068122716768" y2="1.4511246415030947" gradientTransform="matrix(24.227,0,0,103.578,169.795,135.284)" gradientUnits="userSpaceOnUse"><stop offset="0%" stop-opacity="1" style="stop-color:rgb(0,0,0)"/><stop offset="100%" stop-opacity="1" style="stop-color:rgb(0,0,0)"/><stop offset="100%" stop-opacity="1" style="stop-color:rgb(0,0,0)"/></linearGradient><path d=" M 194.022 135.284 C 194.022 135.284 176.967 140.541 170.061 189.766 C 167.565 207.513 183.439 238.862 183.439 238.862 L 194.022 135.284 Z " fill="url(#_lgradient_0)"/><path d=" M 181.567 232.716 C 179.445 232.369 177.286 233.067 175.769 234.59 C 174.251 236.113 173.561 238.274 173.915 240.395 C 175.217 248.088 177.7 258.766 182.055 264.818 C 189.409 274.946 199.45 288.921 199.45 288.921 L 209.829 360.153 L 222.631 358.423 L 222.515 290.163 L 208.065 237.091 L 181.567 232.716 Z " fill="rgb(37,35,58)"/><path d=" M 208.031 237.091 L 206.369 296.384 L 178.928 360.201 L 169.736 356.313 L 167.063 355.167 L 182.259 295.332 C 182.259 295.332 176.343 279.05 171.988 267.178 C 167.809 255.788 173.494 233.218 173.969 231.4 L 173.969 231.277 L 208.031 237.091 Z " fill="rgb(63,61,86)"/><path d=" M 321.663 199.169 L 287.805 215.952 L 281.482 207.9 L 281.482 207.9 L 279.86 205.824 L 308.787 190.105 C 308.787 190.105 318.726 168.01 320.883 157.854 C 321.297 155.968 321.711 154.462 322.098 153.166 C 322.851 150.812 330.035 142.495 332.45 142 C 334.865 141.505 332.145 148.926 333.753 150.819 C 335.518 153.415 336.42 156.501 336.331 159.638 C 336.609 165.948 321.663 199.169 321.663 199.169 Z " fill="rgb(239,95,64)"/><path d=" M 366.336 218.822 C 366.336 218.822 349.519 239.032 330.13 234.222 C 328.795 233.885 327.489 233.445 326.222 232.906 C 322.793 231.427 321.205 227.454 322.668 224.019 L 322.668 223.978 C 324.54 219.731 324.594 213.592 324.425 207.927 C 324.031 194.895 320.734 180.791 320.49 174.923 C 320.327 171.171 320.931 165.859 322.037 160.554 C 323.984 151.124 327.464 141.729 331.066 141.186 C 341.676 139.551 345.313 142.441 345.313 142.441 L 363.426 152.963 C 372.442 162.366 368.059 177.128 366.336 218.822 Z " fill="rgb(239,95,64)"/><path d=" M 339.75 165.595 L 344.383 173.057 L 331.555 186.035 L 328.916 188.708 L 342.857 141.457 L 342.911 136.729 L 344.682 138.54 L 344.682 138.547 L 347.002 140.921 L 347.89 160.486 L 339.75 165.595 L 339.75 165.595 Z " fill="rgb(239,95,64)"/><linearGradient id="_lgradient_1" x1="0" y1="0.5" x2="0.6909260442403706" y2="-0.2229254466335746" gradientTransform="matrix(33.959,0,0,56.333,330.655,176.741)" gradientUnits="userSpaceOnUse"><stop offset="100%" stop-opacity="1" style="stop-color:rgb(0,0,0)"/><stop offset="100%" stop-opacity="1" style="stop-color:rgb(0,0,0)"/><stop offset="100%" stop-opacity="1" style="stop-color:rgb(0,0,0)"/></linearGradient><path d=" M 364.613 176.741 L 362.646 227.682 C 362.646 227.682 334.967 240.836 331.31 226.054 C 328.481 214.63 335.72 201.597 335.72 201.597 L 364.613 176.741 Z " fill="url(#_lgradient_1)"/><path d=" M 337.355 204.989 L 329.031 238.509 L 380.467 249.065 L 387.862 216.271 L 337.355 204.989 L 337.355 204.989 Z " fill="rgb(255,255,255)"/><linearGradient id="_lgradient_2" x1="0.03366909299293752" y1="0.4999419000655565" x2="1.03754563990314" y2="0.4999419000655565" gradientTransform="matrix(14.455,0,0,25.511,328.816,129.253)" gradientUnits="userSpaceOnUse"><stop offset="0%" stop-opacity="1" style="stop-color:rgb(236,196,215)"/><stop offset="42%" stop-opacity="1" style="stop-color:rgb(239,212,209)"/><stop offset="100%" stop-opacity="1" style="stop-color:rgb(242,234,201)"/></linearGradient><path d=" M 343.271 129.253 C 343.271 129.402 343.087 136.993 342.823 141.824 C 342.633 145.562 340.883 148.194 338.21 150.799 C 336.657 152.421 334.789 153.709 332.721 154.584 C 331.217 155.137 329.549 154.37 328.99 152.868 L 328.99 152.868 C 328.786 152.301 328.76 151.686 328.916 151.104 C 329.18 150.1 329.445 148.933 329.648 147.712 C 330.082 145.195 330.272 142.468 329.587 140.541 C 329.569 140.47 329.546 140.4 329.519 140.331 C 329.112 139.334 329.519 138.248 330.442 137.156 C 331.738 135.616 334.004 134.056 336.263 132.74 C 338.53 131.445 340.87 130.281 343.271 129.253 L 343.271 129.253 Z " fill="url(#_lgradient_2)"/><linearGradient id="_lgradient_3" x1="0" y1="0.5" x2="0.39045103728747405" y2="-0.42062369482929096" gradientTransform="matrix(11.919,0,0,16.892,329.601,130.82)" gradientUnits="userSpaceOnUse"><stop offset="0%" stop-opacity="1" style="stop-color:rgb(236,196,215)"/></linearGradient><path d=" M 331.127 147.197 C 330.662 147.428 330.17 147.602 329.662 147.712 C 330.096 145.195 330.286 142.468 329.601 140.541 L 330.456 137.149 L 331.1 134.626 L 336.276 132.733 L 341.52 130.82 C 340.258 140.155 335.265 145.236 331.127 147.197 Z " fill="url(#_lgradient_3)"/><linearGradient id="_lgradient_4" x1="0" y1="0.5" x2="1" y2="0.5" gradientTransform="matrix(30.728,0,0,38.404,315.693,102.713)" gradientUnits="userSpaceOnUse"><stop offset="100%" stop-opacity="1" style="stop-color:rgb(236,196,215)"/><stop offset="100%" stop-opacity="1" style="stop-color:rgb(236,197,215)"/><stop offset="100%" stop-opacity="1" style="stop-color:rgb(239,212,209)"/></linearGradient><path d=" M 329.703 102.727 C 325.751 102.97 322.058 104.772 319.436 107.738 C 316.814 110.704 315.478 114.59 315.721 118.541 L 315.721 118.541 C 315.732 118.925 315.771 119.308 315.836 119.687 C 316.309 125.753 317.877 131.683 320.463 137.19 C 325.34 145.467 337.592 138.615 339.526 135.196 C 341.459 131.777 348.752 116.309 345.672 111.92 C 343.637 108.867 337.653 102.361 329.703 102.727 Z " fill="url(#_lgradient_4)"/><path d=" M 316.732 96.893 L 319.255 98.182 C 316.204 98.12 313.309 99.529 311.474 101.968 C 309.168 104.28 307.865 107.406 307.844 110.671 L 312.125 108.636 C 312.125 108.636 311.806 113.921 319.92 114.308 C 319.92 114.308 336.622 114.986 336.622 114.986 L 333.868 111.18 C 333.868 111.18 338.915 113.215 339.797 115.054 C 340.606 118.04 341.186 121.084 341.534 124.158 C 341.534 124.158 343.535 118.941 344.37 120.088 C 344.37 120.088 343.501 125.956 342.45 126.994 C 342.45 126.994 341.575 131.139 341.48 131.397 C 341.48 131.397 346.507 127.387 346.73 125.922 C 346.73 125.922 352.029 109.64 348.698 106.547 L 350.733 106.391 C 349.539 105.584 348.177 105.06 346.751 104.858 C 346.751 104.858 333.386 87.436 316.732 96.893 Z " fill="rgb(63,61,86)"/><linearGradient id="_lgradient_5" x1="0" y1="0.5" x2="0.9636771898047988" y2="0.23293020790451452" gradientTransform="matrix(23.296,0,0,16.567,262.493,206.441)" gradientUnits="userSpaceOnUse"><stop offset="100%" stop-opacity="1" style="stop-color:rgb(236,196,215)"/><stop offset="100%" stop-opacity="1" style="stop-color:rgb(236,198,214)"/><stop offset="100%" stop-opacity="1" style="stop-color:rgb(239,213,209)"/></linearGradient><path d=" M 263.993 212.771 C 266.212 210.832 268.64 209.146 271.231 207.744 C 273.264 207.027 275.384 206.589 277.534 206.441 C 277.534 206.441 277.886 209.406 276.177 209.603 C 276.177 209.603 273.043 212.398 273.043 212.398 C 273.043 212.398 284.012 216.889 285.525 216.468 C 285.525 216.468 286.739 218.232 283.965 218.089 C 283.965 218.089 280.512 221.827 278.592 221.773 C 278.592 221.773 273.633 222.906 270.811 223.008 C 267.958 222.771 265.156 222.117 262.493 221.068 L 263.993 212.771 Z " fill="url(#_lgradient_5)"/><path d=" M 221.538 181.286 L 212.339 232.994 C 212.339 232.994 209.164 242.892 192.734 241.413 C 186.726 240.915 181.072 238.369 176.716 234.201 L 176.716 234.201 L 176.452 233.95 L 176.269 233.76 C 173.122 230.647 170.657 226.914 169.03 222.797 C 169.03 222.797 179.586 149.849 190.671 137.19 C 191.777 135.928 192.883 135.257 193.995 135.318 C 197.031 135.718 199.931 136.824 202.462 138.547 C 217.019 147.502 224.592 164.47 221.538 181.286 Z " fill="rgb(239,95,64)"/><linearGradient id="_lgradient_6" x1="0" y1="0.5" x2="0.1644365765324282" y2="1.4863876582248456" gradientTransform="matrix(25.033,0,0,62.082,192.713,179.556)" gradientUnits="userSpaceOnUse"><stop offset="100%" stop-opacity="1" style="stop-color:rgb(0,0,0)"/><stop offset="100%" stop-opacity="1" style="stop-color:rgb(0,0,0)"/><stop offset="100%" stop-opacity="1" style="stop-color:rgb(0,0,0)"/></linearGradient><path d=" M 204.246 179.556 L 192.713 241.406 C 192.713 241.406 210.385 243.835 212.319 232.994 L 217.746 201.536 L 204.246 179.556 Z " fill="url(#_lgradient_6)"/><linearGradient id="_lgradient_7" x1="0" y1="0.5" x2="0.9026372764408396" y2="0.9304020761793133" gradientTransform="matrix(31.762,0,0,48.74,194.022,94.502)" gradientUnits="userSpaceOnUse"><stop offset="100%" stop-opacity="1" style="stop-color:rgb(236,196,215)"/><stop offset="100%" stop-opacity="1" style="stop-color:rgb(237,199,214)"/><stop offset="100%" stop-opacity="1" style="stop-color:rgb(239,214,208)"/></linearGradient><path d=" M 194.022 135.284 C 194.022 135.284 195.78 121.98 196.485 113.331 C 196.485 113.331 200.013 93.094 214.531 94.58 C 214.531 94.58 229.096 118.012 225.086 127.197 C 221.077 136.383 215.731 136.118 215.731 136.118 C 215.731 136.118 208.5 134.544 208.771 143.241 L 194.022 135.284 Z " fill="url(#_lgradient_7)"/><path d=" M 199.382 92.741 C 197.268 94.773 195.743 97.337 194.965 100.163 C 194.314 102.454 193.873 104.8 193.649 107.171 L 195.128 105.55 C 195.055 109.609 194.754 113.661 194.226 117.686 C 193.675 121.436 193.448 125.227 193.548 129.015 L 196.261 128.88 L 199.653 133.045 L 203.398 130.508 L 206.234 129.049 L 208.744 122.849 C 207.461 121.925 206.96 120.255 207.523 118.778 C 208.445 116.248 210.738 115.664 211.274 117.157 C 211.683 119.016 211.91 120.911 211.953 122.815 L 215.955 111.479 C 215.955 111.479 218.465 107.958 220.663 110.38 C 221.981 111.846 223.647 112.957 225.507 113.609 L 224.15 109.864 L 227.78 110.794 L 227.495 106.465 L 230.208 108.358 C 230.208 108.358 231.396 101.35 229.096 98.243 C 226.796 95.136 217.651 82.687 199.382 92.741 Z " fill="rgb(63,61,86)"/><path d=" M 264.298 211.366 L 262.46 221.081 L 261.964 223.693 L 228.852 221.224 C 219.686 220.437 210.691 214.168 209.551 205.003 L 198.093 164.55 C 197.043 161.179 197.799 157.504 200.094 154.821 C 202.389 152.137 205.902 150.821 209.395 151.335 C 213.845 152 217.529 155.14 218.893 159.428 L 226.104 195.634 C 226.959 199.989 230.285 203.439 234.604 204.454 L 264.298 211.366 Z " fill="rgb(239,95,64)"/><linearGradient id="_lgradient_8" x1="0" y1="0.5" x2="0.6915605088748851" y2="-0.22231853261889245" gradientTransform="matrix(19.47,0,0,8.623,268.334,207.893)" gradientUnits="userSpaceOnUse"><stop offset="100%" stop-opacity="1" style="stop-color:rgb(242,234,201)"/><stop offset="100%" stop-opacity="1" style="stop-color:rgb(242,233,201)"/><stop offset="100%" stop-opacity="1" style="stop-color:rgb(239,212,209)"/></linearGradient><path d=" M 281.482 207.893 L 276.869 209.331 C 276.869 209.331 271.102 209.847 269.182 211.489 C 269.182 211.489 268.334 213.87 268.334 213.87 C 268.334 213.87 274.44 212.974 275.756 213.483 C 275.756 213.483 283.51 216.549 285.545 216.515 C 285.545 216.515 287.805 215.952 287.805 215.952 L 281.482 207.893 Z " fill="url(#_lgradient_8)"/><linearGradient id="_lgradient_9" x1="0" y1="0.5" x2="0.5759724258894329" y2="-0.3174691215055415" gradientTransform="matrix(12.977,0,0,5.07,265.984,219.009)" gradientUnits="userSpaceOnUse"><stop offset="100%" stop-opacity="1" style="stop-color:rgb(242,234,201)"/><stop offset="100%" stop-opacity="1" style="stop-color:rgb(242,231,202)"/><stop offset="100%" stop-opacity="1" style="stop-color:rgb(239,211,209)"/></linearGradient><path d=" M 267.568 219.955 C 268.257 219.341 269.195 219.09 270.098 219.277 C 270.198 219.294 270.291 219.341 270.363 219.412 C 270.451 219.58 270.451 219.78 270.363 219.948 C 270.057 220.982 269.57 221.954 268.925 222.818 C 269.644 222.574 269.976 221.773 270.431 221.169 C 271.125 220.251 272.198 219.698 273.348 219.663 C 273.484 219.65 273.621 219.678 273.741 219.745 C 274.019 219.935 273.897 220.369 273.741 220.674 C 273.456 221.244 273.178 221.821 272.893 222.397 C 273.613 221.359 274.446 220.403 275.376 219.548 C 275.599 219.31 275.879 219.135 276.19 219.039 C 276.513 218.939 276.861 219.093 277.004 219.399 C 277.065 219.579 277.065 219.775 277.004 219.955 C 276.809 220.74 276.463 221.479 275.987 222.133 C 276.56 221.187 277.279 220.338 278.117 219.616 C 278.237 219.473 278.42 219.4 278.605 219.419 C 278.708 219.453 278.793 219.526 278.843 219.623 C 279.128 220.097 278.843 220.701 278.544 221.176 C 277.995 222.051 277.296 222.987 276.272 223.143 C 276.041 223.157 275.814 223.198 275.593 223.266 C 275.436 223.346 275.288 223.444 275.152 223.557 C 274.432 224.053 273.486 224.074 272.744 223.612 C 271.733 224.254 270.437 224.232 269.447 223.557 C 269.22 223.358 268.888 223.333 268.633 223.496 C 267.728 223.804 266.727 223.508 266.136 222.757 C 265.526 221.888 266.896 220.538 267.568 219.955 Z " fill="url(#_lgradient_9)"/><path d=" M 366.974 236.84 L 355.645 232.926 L 355.258 232.79 L 363.514 206.251 C 363.514 206.251 352.66 176.402 350.855 167.264 C 350.272 164.225 350.244 161.106 350.774 158.058 C 351.317 154.817 353.796 152.243 357.015 151.579 C 358.773 151.191 360.612 151.431 362.211 152.257 C 363.625 152.989 364.985 153.819 366.282 154.74 C 367.322 155.497 368.06 156.598 368.365 157.847 C 370.4 166.205 378.588 200.302 378.893 203.538 C 379.226 207.249 366.974 236.84 366.974 236.84 Z " fill="rgb(239,95,64)"/><linearGradient id="_lgradient_10" x1="0" y1="0.5" x2="1" y2="0.5" gradientTransform="matrix(19.15,0,0,16.137,347.256,232.975)" gradientUnits="userSpaceOnUse"><stop offset="100%" stop-opacity="1" style="stop-color:rgb(236,196,215)"/><stop offset="100%" stop-opacity="1" style="stop-color:rgb(236,197,214)"/><stop offset="100%" stop-opacity="1" style="stop-color:rgb(239,213,209)"/></linearGradient><path d=" M 352.3 235.178 C 351.744 235.707 351.215 236.657 351.805 237.159 C 351.947 237.281 352.144 237.349 352.259 237.498 C 352.544 237.858 352.192 238.36 351.866 238.679 L 349.152 241.318 C 348.148 242.288 347.056 243.502 347.287 244.879 C 347.516 245.877 348.27 246.67 349.254 246.949 C 350.228 247.202 351.251 247.19 352.219 246.915 C 352.185 247.498 352.503 248.045 353.026 248.305 C 353.546 248.548 354.108 248.686 354.681 248.712 C 356.335 249.007 358.032 248.961 359.667 248.577 C 359.79 248.76 359.912 248.936 360.041 249.113 C 362.184 248.733 363.351 246.44 364.111 244.405 C 364.871 242.369 365.644 240.103 366.295 237.912 C 366.417 237.617 366.438 237.291 366.357 236.983 C 366.152 236.616 365.802 236.353 365.393 236.257 C 362.802 235.273 360.217 234.269 357.619 233.299 C 355.217 232.404 354.125 233.475 352.3 235.178 Z " fill="url(#_lgradient_10)"/><path d=" M 339.75 165.595 L 344.383 173.057 L 331.555 186.035 L 328.916 188.708 L 342.857 141.457 L 342.911 136.729 L 344.682 138.54 L 344.682 138.547 L 347.002 140.921 L 347.89 160.486 L 339.75 165.595 L 339.75 165.595 Z " fill="rgb(239,95,64)"/><path d=" M 329.662 147.712 L 327.932 155.853 L 328.916 188.701 L 341.554 145.874 L 336.127 149.306 C 335.835 149.49 335.537 149.659 335.225 149.815 C 334.273 150.294 333.17 150.375 332.158 150.04 C 331.147 149.706 330.31 148.983 329.831 148.031 L 329.831 148.031 C 329.777 147.922 329.73 147.814 329.682 147.699 L 329.662 147.712 Z " fill="rgb(255,255,255)"/><path d=" M 329.743 141.152 L 324.106 151.715 L 325.978 156.124 L 322.919 162.739 L 328.895 188.701 C 328.895 188.701 327.26 156.966 329.641 147.699 C 329.662 147.712 330.449 143.296 329.743 141.152 Z " fill="rgb(239,95,64)"/><linearGradient id="_lgradient_11" x1="0" y1="0.5" x2="0.0004386655249060489" y2="-0.499999903786274" gradientTransform="matrix(18.975,0,0,51.979,328.916,136.729)" gradientUnits="userSpaceOnUse"><stop offset="0%" stop-opacity="1" style="stop-color:rgb(0,0,0)"/><stop offset="0%" stop-opacity="1" style="stop-color:rgb(0,0,0)"/><stop offset="0%" stop-opacity="1" style="stop-color:rgb(0,0,0)"/></linearGradient><path d=" M 339.75 165.595 L 344.383 173.057 L 331.555 186.035 L 328.916 188.708 L 342.857 141.457 L 342.911 136.729 L 344.682 138.54 L 344.682 138.547 L 347.002 140.921 L 347.89 160.486 L 339.75 165.595 L 339.75 165.595 Z " fill="url(#_lgradient_11)"/><linearGradient id="_lgradient_12" x1="0" y1="0.5" x2="0.0008064243670535719" y2="1.4999996748398172" gradientTransform="matrix(7.118,0,0,47.549,322.919,141.152)" gradientUnits="userSpaceOnUse"><stop offset="100%" stop-opacity="1" style="stop-color:rgb(0,0,0)"/><stop offset="100%" stop-opacity="1" style="stop-color:rgb(0,0,0)"/><stop offset="100%" stop-opacity="1" style="stop-color:rgb(0,0,0)"/></linearGradient><path d=" M 329.743 141.152 L 324.106 151.715 L 325.978 156.124 L 322.919 162.739 L 328.895 188.701 C 328.895 188.701 327.26 156.966 329.641 147.699 C 329.662 147.712 330.449 143.296 329.743 141.152 Z " fill="url(#_lgradient_12)"/><path d=" M 193.561 133.059 L 210.216 141.342 L 214.72 150.073 L 190.685 137.143 L 193.561 133.059 L 193.561 133.059 Z " fill="rgb(239,95,64)"/><linearGradient id="_lgradient_13" x1="0.5484053062376519" y1="0.00007495689978265219" x2="0.5104876746292671" y2="0.3438345915451611" gradientTransform="matrix(24.036,0,0,17.014,190.685,133.059)" gradientUnits="userSpaceOnUse"><stop offset="0.4683369887729277%" stop-opacity="1" style="stop-color:rgb(0,0,0)"/><stop offset="14.521556387618576%" stop-opacity="1" style="stop-color:rgb(0,0,0)"/><stop offset="29.53294983638552%" stop-opacity="1" style="stop-color:rgb(0,0,0)"/><stop offset="32.4074719861494%" stop-opacity="1" style="stop-color:rgb(0,0,0)"/></linearGradient><path d=" M 193.561 133.059 L 210.216 141.342 L 214.72 150.073 L 190.685 137.143 L 193.561 133.059 L 193.561 133.059 Z " fill="url(#_lgradient_13)"/><path d=" M 149.045 247.912 L 149.045 380.2 L 134.479 380.2 L 134.479 320.189 L 3.1 320.189 C 1.155 313.036 0.113 305.668 0 298.256 L 0 296.384 C 0.115 278.813 5.536 261.432 16.831 247.939 L 149.045 247.912 Z " fill="rgb(239,95,64)"/><path d=" M 164.587 240.307 L 164.587 247.891 L 16.831 247.891 C 17.543 247.037 18.283 246.189 19.043 245.368 C 20.644 243.645 22.38 241.976 24.219 240.307 L 164.587 240.307 Z " fill="rgb(239,95,64)"/><path d=" M 84.223 196.659 C 82.555 195.058 80.56 193.837 78.796 192.371 C 78.172 191.856 77.514 191.164 77.636 190.336 C 77.796 189.681 78.329 189.183 78.993 189.067 C 79.653 188.979 80.323 189.02 80.967 189.19 L 77.168 184.916 C 76.815 184.515 76.435 183.966 76.693 183.498 C 76.951 183.03 77.677 183.057 78.179 183.294 C 78.634 183.607 79.162 183.796 79.712 183.844 C 78.355 181.937 76.632 180.384 75.187 178.573 C 73.742 176.761 72.582 174.502 72.799 172.223 C 72.805 171.891 72.922 171.571 73.132 171.314 C 73.566 170.879 74.298 171.063 74.861 171.314 C 78.88 173.063 82.104 176.245 83.905 180.241 C 83.278 178.296 83.025 176.25 83.158 174.21 C 83.131 173.73 83.32 173.262 83.674 172.935 C 84.352 172.467 85.248 173.274 85.641 174.027 C 88.314 179.231 86.449 185.56 87.541 191.32 C 87.683 189.718 88.43 188.231 89.63 187.161 C 89.962 190.126 89.848 193.124 89.291 196.055 C 90.125 196.421 90.058 197.615 89.847 198.511 Q 89.44 200.546 88.83 202.581 C 87.337 202.459 87.31 201.645 86.842 200.444 C 86.252 199.009 85.358 197.717 84.223 196.659 L 84.223 196.659 Z " fill="rgb(239,95,64)"/><path d=" M 96.184 178.925 C 97.588 177.331 99.27 175.818 101.353 175.384 C 101.984 176.598 101.353 178.098 100.478 179.163 C 99.603 180.228 98.517 181.198 98.076 182.46 C 99.893 180.291 102.352 178.754 105.098 178.071 C 106.073 177.738 107.139 177.799 108.069 178.24 C 108.338 178.382 108.539 178.627 108.625 178.919 C 108.788 179.665 107.839 180.113 107.092 180.275 C 101.856 181.654 97.259 184.807 94.087 189.196 C 97.183 187.324 100.811 186.529 104.406 186.937 C 105.03 187.012 105.763 187.202 105.993 187.778 C 106.353 188.633 105.383 189.447 104.501 189.739 C 101.109 190.865 96.862 189.664 94.121 191.985 C 95.606 191.822 97.097 192.234 98.287 193.138 C 99.243 193.864 99.949 195.349 99.107 196.204 C 98.531 196.652 97.786 196.821 97.072 196.665 C 95.112 196.496 92.697 196.17 91.57 197.785 C 90.953 198.674 91.001 199.82 90.77 200.905 C 90.587 201.767 89.874 203.293 88.938 202.452 C 88.314 201.889 88.558 199.922 88.558 199.176 C 88.605 191.741 91.304 184.567 96.17 178.946 L 96.184 178.925 Z " fill="rgb(239,95,64)"/><linearGradient id="_lgradient_14" x1="0" y1="0.5" x2="0.869291615861081" y2="0.0057004080584014405" gradientTransform="matrix(17.211,0,0,31.529,72.773,171.052)" gradientUnits="userSpaceOnUse"><stop offset="0%" stop-opacity="1" style="stop-color:rgb(0,0,0)"/><stop offset="0%" stop-opacity="1" style="stop-color:rgb(0,0,0)"/><stop offset="0%" stop-opacity="1" style="stop-color:rgb(0,0,0)"/></linearGradient><path d=" M 84.223 196.659 C 82.555 195.058 80.56 193.837 78.796 192.371 C 78.172 191.856 77.514 191.164 77.636 190.336 C 77.796 189.681 78.329 189.183 78.993 189.067 C 79.653 188.979 80.323 189.02 80.967 189.19 L 77.168 184.916 C 76.815 184.515 76.435 183.966 76.693 183.498 C 76.951 183.03 77.677 183.057 78.179 183.294 C 78.634 183.607 79.162 183.796 79.712 183.844 C 78.355 181.937 76.632 180.384 75.187 178.573 C 73.742 176.761 72.582 174.502 72.799 172.223 C 72.805 171.891 72.922 171.571 73.132 171.314 C 73.566 170.879 74.298 171.063 74.861 171.314 C 78.88 173.063 82.104 176.245 83.905 180.241 C 83.278 178.296 83.025 176.25 83.158 174.21 C 83.131 173.73 83.32 173.262 83.674 172.935 C 84.352 172.467 85.248 173.274 85.641 174.027 C 88.314 179.231 86.449 185.56 87.541 191.32 C 87.683 189.718 88.43 188.231 89.63 187.161 C 89.962 190.126 89.848 193.124 89.291 196.055 C 90.125 196.421 90.058 197.615 89.847 198.511 Q 89.44 200.546 88.83 202.581 C 87.337 202.459 87.31 201.645 86.842 200.444 C 86.252 199.009 85.358 197.717 84.223 196.659 L 84.223 196.659 Z " fill="url(#_lgradient_14)"/><linearGradient id="_lgradient_15" x1="0" y1="0.5" x2="0.9997898087684998" y2="0.5205021531222117" gradientTransform="matrix(20.133,0,0,27.313,88.511,175.384)" gradientUnits="userSpaceOnUse"><stop offset="100%" stop-opacity="1" style="stop-color:rgb(0,0,0)"/><stop offset="100%" stop-opacity="1" style="stop-color:rgb(0,0,0)"/><stop offset="100%" stop-opacity="1" style="stop-color:rgb(0,0,0)"/></linearGradient><path d=" M 96.184 178.925 C 97.588 177.331 99.27 175.818 101.353 175.384 C 101.984 176.598 101.353 178.098 100.478 179.163 C 99.603 180.228 98.517 181.198 98.076 182.46 C 99.893 180.291 102.352 178.754 105.098 178.071 C 106.073 177.738 107.139 177.799 108.069 178.24 C 108.338 178.382 108.539 178.627 108.625 178.919 C 108.788 179.665 107.839 180.113 107.092 180.275 C 101.856 181.654 97.259 184.807 94.087 189.196 C 97.183 187.324 100.811 186.529 104.406 186.937 C 105.03 187.012 105.763 187.202 105.993 187.778 C 106.353 188.633 105.383 189.447 104.501 189.739 C 101.109 190.865 96.862 189.664 94.121 191.985 C 95.606 191.822 97.097 192.234 98.287 193.138 C 99.243 193.864 99.949 195.349 99.107 196.204 C 98.531 196.652 97.786 196.821 97.072 196.665 C 95.112 196.496 92.697 196.17 91.57 197.785 C 90.953 198.674 91.001 199.82 90.77 200.905 C 90.587 201.767 89.874 203.293 88.938 202.452 C 88.314 201.889 88.558 199.922 88.558 199.176 C 88.605 191.741 91.304 184.567 96.17 178.946 L 96.184 178.925 Z " fill="url(#_lgradient_15)"/><path d=" M 97.608 240.253 L 89.847 240.293 L 82.168 240.293 C 65.276 230.28 84.8 209.915 84.8 209.915 C 84.8 209.915 85.573 206.74 84.563 204.738 C 84.33 204.256 83.965 203.849 83.511 203.565 C 81.021 202.072 84.495 201.482 84.495 201.482 L 94.915 201.482 C 94.915 201.482 98.483 201.781 95.804 203.66 C 95.804 203.66 94.616 209.915 94.616 209.915 C 115.464 233.096 97.608 240.253 97.608 240.253 Z " fill="rgb(255,255,255)"/><g opacity="0.51"><linearGradient id="_lgradient_16" x1="1.7223305641921902" y1="0.1714044487816091" x2="-0.6693008261602693" y2="1.9024054149639" gradientTransform="matrix(16.292,0,0,35.566,75.287,204.728)" gradientUnits="userSpaceOnUse"><stop offset="0%" stop-opacity="0" style="stop-color:rgb(255,255,255)"/><stop offset="100%" stop-opacity="1" style="stop-color:rgb(63,61,86)"/></linearGradient><path d=" M 90.41 239.683 C 90.239 239.901 90.051 240.105 89.847 240.293 L 82.168 240.293 C 65.276 230.28 84.8 209.915 84.8 209.915 C 84.8 209.915 85.573 206.74 84.563 204.738 C 87.955 204.481 89.59 208.856 89.135 211.638 C 88.789 213.782 88.457 215.932 88.083 218.076 C 87.649 220.08 87.534 222.141 87.744 224.181 C 88.165 226.895 89.712 229.29 90.722 231.841 C 91.733 234.391 92.1 237.512 90.41 239.683 Z " fill="url(#_lgradient_16)"/></g><linearGradient id="_lgradient_17" x1="0" y1="0.5" x2="0.702105859791375" y2="-0.2120725817264797" gradientTransform="matrix(149.045,0,0,72.277,0,247.912)" gradientUnits="userSpaceOnUse"><stop offset="0%" stop-opacity="1" style="stop-color:rgb(0,0,0)"/><stop offset="100%" stop-opacity="1" style="stop-color:rgb(0,0,0)"/><stop offset="100%" stop-opacity="1" style="stop-color:rgb(0,0,0)"/></linearGradient><path d=" M 149.045 247.912 L 73.145 269.478 C 46.528 277.039 24.317 295.442 11.94 320.189 L 3.121 320.189 C 1.168 313.037 0.12 305.668 0 298.256 L 0 296.384 C 0.115 278.813 5.536 261.432 16.831 247.939 L 149.045 247.912 Z " fill="url(#_lgradient_17)"/><g opacity="0.61"><linearGradient id="_lgradient_18" x1="-31.202729044834335" y1="-0.9734994337485854" x2="14.440549080543207" y2="17.283630631168826" gradientTransform="matrix(6.96,0,0,59.903,134.479,320.189)" gradientUnits="userSpaceOnUse"><stop offset="17%" stop-opacity="1" style="stop-color:rgb(0,39,46)"/><stop offset="100%" stop-opacity="0" style="stop-color:rgb(105,185,235)"/></linearGradient><rect x="134.479" y="320.189" width="6.96" height="59.903" transform="matrix(1,0,0,1,0,0)" fill="url(#_lgradient_18)"/></g><path d=" M 557.944 279.132 C 557.389 289.968 554.618 300.575 549.803 310.298 C 548.019 313.84 546.002 317.26 543.765 320.535 C 536.248 331.579 526.418 340.887 515.272 348.512 C 507.198 353.968 498.576 358.565 489.547 362.229 L 471.563 358.912 L 437.093 352.555 C 435.404 352.243 433.769 352.046 432.222 351.877 C 425.866 351.158 420.92 350.805 419.055 344.353 C 416.741 336.409 419.055 324.252 419.055 315.921 C 419.055 301.444 420.567 284.206 433.172 277.097 C 443.633 271.208 456.916 275.367 468.591 272.64 C 469.717 272.456 470.777 271.989 471.671 271.283 C 473.028 270.028 473.238 267.992 473.272 266.147 C 473.564 252.138 468.883 236.427 477.255 225.192 C 483.659 216.604 495.375 214.236 506.039 213.246 C 509.322 212.934 512.619 212.791 515.917 212.818 Q 518.318 212.818 520.713 213.022 C 531.764 213.877 542.293 217.425 547.91 226.522 C 550.915 231.379 551.98 237.146 552.984 242.77 C 553.439 245.368 553.893 247.986 554.341 250.605 C 555.834 259.981 557.191 269.58 557.944 279.132 Z " fill="rgb(63,61,86)"/><path d=" M 557.944 279.132 C 557.389 289.968 554.618 300.575 549.803 310.298 C 548.019 313.84 546.002 317.26 543.765 320.535 C 539.634 322.292 534.661 322.271 530.055 322.339 C 522.804 322.449 515.57 323.07 508.407 324.198 C 505.191 324.7 501.84 325.372 499.316 327.434 C 495.985 330.148 494.832 334.781 494.649 339.089 C 494.466 343.397 495.042 347.759 494.31 352.012 C 494.137 353.446 493.592 354.81 492.729 355.967 C 490.999 358.05 487.98 358.423 485.267 358.593 Q 478.388 359.007 471.502 358.932 C 459.957 358.783 448.451 357.575 437.127 355.323 C 435.167 354.929 432.88 354.231 432.256 352.324 C 432.211 352.183 432.179 352.038 432.161 351.89 C 432.059 350.994 432.142 350.087 432.406 349.224 L 438.613 322.651 C 439.454 319.042 440.322 315.365 442.242 312.197 C 446.069 305.854 453.341 302.611 460.159 299.742 L 478.516 292.001 C 483.537 289.898 486.949 289.627 486.501 283.718 C 485.518 270.652 482.777 257.939 482.777 244.75 C 482.777 240.965 482.953 237.051 484.581 233.645 C 486.209 230.24 489.133 227.648 492.139 225.369 C 499.352 219.993 507.349 215.758 515.849 212.811 Q 518.25 212.811 520.645 213.015 C 531.696 213.87 542.225 217.418 547.842 226.515 C 550.847 231.372 551.913 237.139 552.917 242.763 C 553.371 245.361 553.826 247.98 554.273 250.598 C 555.257 256.548 556.159 262.559 556.885 268.583 C 557.306 272.083 557.645 275.584 557.944 279.132 Z " fill="rgb(37,35,58)"/><path d=" M 557.944 279.132 C 557.389 289.968 554.618 300.575 549.803 310.298 C 548.019 313.84 546.002 317.26 543.765 320.535 C 539.634 322.292 534.661 322.271 530.055 322.339 C 522.804 322.449 515.57 323.07 508.407 324.198 C 505.191 324.7 501.84 325.372 499.316 327.434 C 499.316 327.434 503.529 304.151 520.713 296.309 C 537.897 288.467 556.885 268.569 556.885 268.569 C 557.306 272.083 557.645 275.584 557.944 279.132 Z " fill="rgb(63,61,86)"/><linearGradient id="_lgradient_19" x1="0" y1="0.5000000000002274" x2="1" y2="0.5000000000002274" gradientTransform="matrix(0.271,0,0,0.258,180.543,230.762)" gradientUnits="userSpaceOnUse"><stop offset="0%" stop-opacity="1" style="stop-color:rgb(104,225,253)"/><stop offset="100%" stop-opacity="1" style="stop-color:rgb(105,185,235)"/></linearGradient><path d=" M 180.814 231.02 C 180.719 230.938 180.631 230.85 180.543 230.762 L 180.604 230.816 C 180.682 230.875 180.752 230.944 180.814 231.02 Z " fill="url(#_lgradient_19)"/><g opacity="0.24"><path d=" M 173.297 220.226 C 173.297 220.226 174.281 231.142 176.805 233.916 C 173.586 230.733 171.066 226.914 169.403 222.702 C 169.403 222.702 179.369 150.114 190.671 137.156 L 194.063 138.954 L 173.297 220.226 Z " fill="rgb(255,255,255)"/></g><g opacity="0.24"><path d=" M 320.524 161.382 L 320.68 168.844 L 310.938 193.368 L 281.17 208.972 L 281.17 208.972 L 279.501 206.835 L 309.086 190.784 C 309.086 190.784 318.319 171.789 320.524 161.382 Z " fill="rgb(255,255,255)"/></g><g opacity="0.24"><path d=" M 263.097 220.165 L 262.595 222.838 L 228.729 220.315 C 219.354 219.507 210.155 213.096 208.988 203.728 L 197.299 162.345 C 196.227 158.894 196.995 155.134 199.334 152.38 C 199.334 152.38 210.25 203.599 214.259 208.185 C 218.269 212.771 225.907 215.518 225.907 215.518 L 263.097 220.165 Z " fill="rgb(255,255,255)"/></g><g opacity="0.24"><path d=" M 187.659 300.454 L 169.444 357.982 L 166.73 356.815 L 182.273 295.624 C 182.273 295.624 176.221 278.976 171.771 266.826 C 167.497 255.178 173.311 232.098 173.806 230.24 L 176.133 232.648 C 176.133 232.648 170.027 259.96 177.883 272.945 C 185.739 285.929 187.659 300.454 187.659 300.454 Z " fill="rgb(255,255,255)"/></g><g opacity="0.24"><path d=" M 330.551 234.201 L 330.551 234.201 C 329.185 233.854 327.849 233.401 326.555 232.845 C 324.866 232.122 323.535 230.758 322.853 229.053 C 322.171 227.348 322.194 225.442 322.919 223.754 L 322.919 223.652 C 324.838 219.31 324.893 213.029 324.716 207.235 C 324.316 193.911 320.944 179.509 320.693 173.485 C 320.531 169.652 321.148 164.218 322.274 158.79 L 324.404 149.774 C 324.404 149.774 322.45 164.401 321.948 168.41 C 321.948 168.41 326.019 195.248 327.722 198.558 C 327.722 198.558 326.439 221.352 326.84 225.979 C 327.24 230.606 330.551 234.201 330.551 234.201 Z " fill="rgb(255,255,255)"/></g><g opacity="0.24"><path d=" M 368.331 355.316 L 365.556 356.673 C 365.237 355.079 359.301 325.738 350.936 304.477 C 344.688 288.623 341.676 256.31 340.503 239.812 L 343.942 240.49 C 343.942 240.49 349.044 282.619 354.647 298.195 C 360.251 313.771 368.331 355.316 368.331 355.316 Z " fill="rgb(255,255,255)"/></g><g opacity="0.24"><path d=" M 366.648 204.8 L 357.653 233.774 L 355.617 233.387 L 355.217 233.252 L 363.663 206.116 C 363.663 206.116 352.605 175.628 350.733 166.239 C 350.137 163.131 350.107 159.942 350.645 156.823 C 351.2 153.508 353.736 150.874 357.029 150.195 C 357.029 150.195 350.923 154.449 352.782 163.851 C 355.21 175.934 366.648 204.8 366.648 204.8 Z " fill="rgb(255,255,255)"/></g><g opacity="0.24"><path d=" M 346.086 142.719 L 332.023 187.331 L 329.323 190.065 L 343.583 141.742 L 343.637 136.905 L 345.448 138.757 L 345.448 138.764 L 346.086 142.719 L 346.086 142.719 Z " fill="rgb(255,255,255)"/></g><path d=" M 168.8 355.676 L 164.899 362.772 L 168.82 365.017 L 170.278 363.85 L 176.601 369.671 C 176.601 369.671 178.86 371.231 184.389 371.231 C 184.389 371.231 191.01 370.438 191.01 370.438 C 191.01 370.438 191.01 362.297 184.226 362.67 C 184.226 362.67 176.974 359.183 176.974 359.183 L 168.8 355.676 Z " fill="rgb(239,95,64)"/><path d=" M 211.959 359.936 L 211.322 370.424 L 216.07 370.424 L 216.07 366.489 L 222.515 370.424 L 238.451 370.383 C 238.451 370.383 238.451 359.529 231.287 360.099 C 231.287 360.099 221.233 360.099 221.233 360.099 L 220.1 358.586 L 211.959 359.936 Z " fill="rgb(239,95,64)"/><path d=" M 375.874 355.153 L 376.553 365.635 L 371.804 365.635 L 371.804 361.673 L 365.407 365.648 L 349.471 365.689 C 349.471 365.689 349.471 354.835 356.588 355.37 C 356.588 355.37 366.641 355.37 366.641 355.37 L 367.761 353.851 L 375.874 355.153 Z " fill="rgb(239,95,64)"/><path d=" M 323.929 355.282 L 324.608 365.757 L 319.859 365.757 L 319.859 361.795 L 313.421 365.811 L 297.485 365.852 C 297.485 365.852 297.485 354.997 304.602 355.533 C 304.602 355.533 314.656 355.533 314.656 355.533 L 315.775 354.014 L 323.929 355.282 Z " fill="rgb(239,95,64)"/><linearGradient id="_lgradient_20" x1="0" y1="0.5" x2="0.9671115403947994" y2="0.2456473541808573" gradientTransform="matrix(26.112,0,0,15.556,164.899,355.676)" gradientUnits="userSpaceOnUse"><stop offset="100%" stop-opacity="1" style="stop-color:rgb(0,0,0)"/><stop offset="100%" stop-opacity="1" style="stop-color:rgb(0,0,0)"/><stop offset="100%" stop-opacity="1" style="stop-color:rgb(0,0,0)"/></linearGradient><path d=" M 168.8 355.676 L 164.899 362.772 L 168.82 365.017 L 170.278 363.85 L 176.601 369.671 C 176.601 369.671 178.86 371.231 184.389 371.231 C 184.389 371.231 191.01 370.438 191.01 370.438 C 191.01 370.438 191.01 362.297 184.226 362.67 C 184.226 362.67 176.974 359.183 176.974 359.183 L 168.8 355.676 Z " fill="url(#_lgradient_20)"/><linearGradient id="_lgradient_21" x1="0" y1="0.5" x2="0.959816653365159" y2="0.21937214692246565" gradientTransform="matrix(27.129,0,0,11.838,211.322,358.586)" gradientUnits="userSpaceOnUse"><stop offset="100%" stop-opacity="1" style="stop-color:rgb(0,0,0)"/><stop offset="100%" stop-opacity="1" style="stop-color:rgb(0,0,0)"/><stop offset="100%" stop-opacity="1" style="stop-color:rgb(0,0,0)"/></linearGradient><path d=" M 211.959 359.936 L 211.322 370.424 L 216.07 370.424 L 216.07 366.489 L 222.515 370.424 L 238.451 370.383 C 238.451 370.383 238.451 359.529 231.287 360.099 C 231.287 360.099 221.233 360.099 221.233 360.099 L 220.1 358.586 L 211.959 359.936 Z " fill="url(#_lgradient_21)"/><linearGradient id="_lgradient_22" x1="0" y1="0.5" x2="0.9494289969944416" y2="0.8139818142283539" gradientTransform="matrix(27.082,0,0,11.838,349.471,353.851)" gradientUnits="userSpaceOnUse"><stop offset="100%" stop-opacity="1" style="stop-color:rgb(0,0,0)"/><stop offset="100%" stop-opacity="1" style="stop-color:rgb(0,0,0)"/><stop offset="100%" stop-opacity="1" style="stop-color:rgb(0,0,0)"/></linearGradient><path d=" M 375.874 355.153 L 376.553 365.635 L 371.804 365.635 L 371.804 361.673 L 365.407 365.648 L 349.471 365.689 C 349.471 365.689 349.471 354.835 356.588 355.37 C 356.588 355.37 366.641 355.37 366.641 355.37 L 367.761 353.851 L 375.874 355.153 Z " fill="url(#_lgradient_22)"/><linearGradient id="_lgradient_23" x1="0" y1="0.5" x2="0.9764127275337807" y2="0.7159124487148503" gradientTransform="matrix(27.122,0,0,11.838,297.485,354.014)" gradientUnits="userSpaceOnUse"><stop offset="100%" stop-opacity="1" style="stop-color:rgb(0,0,0)"/><stop offset="100%" stop-opacity="1" style="stop-color:rgb(0,0,0)"/><stop offset="100%" stop-opacity="1" style="stop-color:rgb(0,0,0)"/></linearGradient><path d=" M 323.929 355.282 L 324.608 365.757 L 319.859 365.757 L 319.859 361.795 L 313.421 365.811 L 297.485 365.852 C 297.485 365.852 297.485 354.997 304.602 355.533 C 304.602 355.533 314.656 355.533 314.656 355.533 L 315.775 354.014 L 323.929 355.282 Z " fill="url(#_lgradient_23)"/></g></g></svg>