<?xml version="1.0" encoding="UTF-8" standalone="no"?><!-- Generator: Gravit.io --><svg xmlns="http://www.w3.org/2000/svg" xmlns:xlink="http://www.w3.org/1999/xlink" style="isolation:isolate" viewBox="0 0 558.9 410.2" width="558.9pt" height="410.2pt"><defs><clipPath id="_clipPath_bXnIMhD5RwZgDLL8NRPQhxHXGjlhveHB"><rect width="558.9" height="410.2"/></clipPath></defs><g clip-path="url(#_clipPath_bXnIMhD5RwZgDLL8NRPQhxHXGjlhveHB)"><g><g opacity="0.18"><path d=" M 174.482 202.085 C 174.482 233.331 157.774 262.192 130.677 277.752 C 103.58 293.311 70.231 293.194 43.245 277.443 L 46.807 280.671 L 3.993 295.365 L 18.45 255.737 C -5.019 225.647 -6.208 183.795 15.515 152.42 C 37.239 121.046 76.832 107.431 113.257 118.811 C 149.682 130.191 174.483 163.924 174.482 202.085 L 174.482 202.085 Z " fill="rgb(239,95,64)"/></g><path d=" M 72.409 231.471 C 72.409 231.471 48.421 231.958 36.232 251.981 C 36.232 251.981 29.874 280.435 30.667 286.501 L 46.39 279.377 C 46.863 280.671 69.96 289.799 90.094 288.895 C 127.23 287.239 144.052 268.427 144.052 268.427 C 144.052 268.427 140.115 241.726 118.103 235.659 C 96.091 229.593 72.409 231.471 72.409 231.471 Z " fill="rgb(239,95,64)"/><path d=" M 72.242 230.275 C 72.242 230.275 67.052 231.068 67.219 234.825 C 67.219 234.825 68.012 249.893 73.842 247.18 C 73.842 247.18 84.611 236.258 84.611 236.258 L 72.242 230.275 Z " fill="rgb(255,255,255)"/><path d=" M 99.193 230.275 C 99.193 230.275 104.383 231.068 104.23 234.825 C 104.23 234.825 103.423 249.893 97.607 247.18 C 97.607 247.18 86.838 236.258 86.838 236.258 L 99.193 230.275 Z " fill="rgb(255,255,255)"/><path d=" M 52.623 176.121 C 52.623 176.121 46.724 213.453 61.556 218.225 C 64.826 220.169 68.754 220.673 72.409 219.617 L 72.409 231.416 C 72.409 231.416 87.394 242.742 99.68 230.623 L 99.68 200.248 C 99.68 200.248 98.289 181.673 94.574 183.649 C 93.725 184.122 86.226 183.343 85.001 169.735 C 85.001 169.735 67.775 162.082 59.803 167.341 C 51.83 172.601 52.623 176.121 52.623 176.121 Z " fill="rgb(247,175,135)"/><path d=" M 48.991 174.869 C 50.813 178.178 53.902 180.604 57.549 181.589 C 61.28 182.479 65.16 180.867 67.163 177.596 C 70.248 181.926 76.089 183.255 80.743 180.685 C 82.719 183.468 86.49 184.233 89.871 184.024 C 94.206 183.829 98.333 182.115 101.531 179.182 C 104.682 176.171 106.229 171.85 105.705 167.522 C 104.968 162.527 101.197 158.506 97.162 155.487 C 90.783 150.626 83.223 147.557 75.261 146.596 C 68.068 145.789 56.575 146.596 51.065 152.022 C 45.555 157.448 45.054 168.246 48.991 174.869 Z " fill="rgb(221,96,52)"/><linearGradient id="_lgradient_24" x1="0.7583892617449672" y1="1.2056145675265544" x2="0.17423824458735482" y2="-1.1498077889049432" gradientTransform="matrix(12.439,0,0,18.339,72.409,213.188)" gradientUnits="userSpaceOnUse"><stop offset="0%" stop-opacity="1" style="stop-color:rgb(0,0,0)"/><stop offset="100%" stop-opacity="1" style="stop-color:rgb(0,0,0)"/></linearGradient><path d=" M 72.409 219.728 C 72.409 219.728 81.495 217.335 84.848 213.188 C 84.848 213.188 80.215 231.374 72.409 231.527 L 72.409 219.728 Z " fill="url(#_lgradient_24)"/><path d=" M 90.845 178.793 L 91.499 191.663 L 94.087 188.129 C 94.477 187.586 95.005 187.002 95.659 187.113 C 96.313 187.225 96.466 187.684 96.689 188.129 C 98.754 192.374 98.003 197.451 94.797 200.916 C 94.245 201.391 93.795 201.974 93.475 202.627 C 93.319 203.194 93.281 203.785 93.363 204.367 C 93.628 208.123 99.166 212.534 100.112 209.807 C 101.058 207.08 101.239 204.116 102.129 201.361 C 103.538 197.817 105.517 194.527 107.987 191.621 C 110.481 188.706 112.373 185.324 113.553 181.673 C 114.471 177.972 113.748 173.617 110.77 171.182 C 110.211 170.824 109.736 170.349 109.379 169.79 C 109.209 169.346 109.119 168.875 109.114 168.399 C 108.784 163.776 106.873 159.408 103.702 156.029 C 100.475 152.653 95.957 150.82 91.29 150.992 C 90.509 150.997 89.738 151.178 89.036 151.521 C 87.743 152.416 86.889 153.816 86.685 155.375 C 85.196 162.332 88.424 169.289 89.634 176.358" fill="rgb(221,96,52)"/><g opacity="0.18"><path d=" M 367.47 202.085 C 367.464 233.332 350.753 262.191 323.654 277.75 C 296.556 293.308 263.208 293.191 236.219 277.443 L 239.781 280.671 L 196.926 295.365 L 211.369 255.737 C 187.91 225.645 186.729 183.799 208.453 152.431 C 230.177 121.063 269.765 107.451 306.185 118.828 C 342.606 130.204 367.408 163.929 367.415 202.085 L 367.47 202.085 Z " fill="rgb(239,95,64)"/></g><path d=" M 264.993 231.471 C 264.993 231.471 241.005 231.958 228.817 251.981 C 228.817 251.981 220.468 280.671 221.303 286.766 L 239.837 280.699 C 249.076 285.861 262.948 289.813 282.678 288.922 C 319.884 287.267 336.637 268.413 336.637 268.413 C 336.637 268.413 332.699 241.712 310.687 235.646 C 288.675 229.579 264.993 231.471 264.993 231.471 Z " fill="rgb(239,95,64)"/><path d=" M 317.143 199.552 C 320.163 184.136 322.876 160.343 312.259 155.473 L 305.302 155.153 C 305.302 155.153 300.196 143.326 279.742 145.246 C 259.289 147.166 238.668 164.406 247.99 192.415 C 252.832 206.941 244.234 228.076 244.234 228.076 L 274.316 227.965 L 320.761 226.49 L 320.761 226.49 C 316.604 218.16 315.332 208.684 317.143 199.552 L 317.143 199.552 Z " fill="rgb(64,64,64)"/><path d=" M 312.579 175.829 C 312.579 175.829 318.479 213.16 303.647 217.947 C 300.378 219.894 296.448 220.398 292.794 219.338 L 292.794 231.151 C 292.794 231.151 277.808 242.477 265.522 230.344 L 265.522 199.872 C 265.522 199.872 266.913 181.311 270.629 183.287 C 271.477 183.746 278.977 182.967 280.201 169.373 C 280.201 169.373 297.427 161.706 305.4 166.98 C 313.373 172.253 312.579 175.829 312.579 175.829 Z " fill="rgb(247,175,135)"/><linearGradient id="_lgradient_25" x1="0" y1="0.5" x2="0.16576720460973965" y2="-0.486164912109467" gradientTransform="matrix(12.439,0,0,18.353,280.354,212.84)" gradientUnits="userSpaceOnUse"><stop offset="0%" stop-opacity="1" style="stop-color:rgb(0,0,0)"/><stop offset="0%" stop-opacity="1" style="stop-color:rgb(0,0,0)"/></linearGradient><path d=" M 292.794 219.38 C 292.794 219.38 283.708 216.987 280.354 212.84 C 280.354 212.84 284.974 231.026 292.794 231.193 L 292.794 219.38 Z " fill="url(#_lgradient_25)"/><path d=" M 300.238 165.004 C 295.632 165.004 290.623 165.658 287.381 168.914 C 283.374 172.935 283.471 179.335 281.718 184.734 C 280.424 188.847 277.831 192.43 274.33 194.947 C 270.788 197.444 266.39 198.412 262.127 197.632 C 261.251 197.54 260.451 197.092 259.915 196.394 C 259.622 195.77 259.52 195.072 259.623 194.39 C 260.026 186.738 260.93 178.82 264.882 172.267 C 267.087 168.643 270.132 165.603 273.759 163.404 C 275.866 162.058 278.24 161.185 280.716 160.844 C 285.586 160.287 290.317 162.458 294.728 164.586" fill="rgb(64,64,64)"/><path d=" M 264.84 230.275 C 264.84 230.275 259.65 231.068 259.817 234.825 C 259.817 234.825 260.61 249.893 266.44 247.18 C 266.44 247.18 277.21 236.258 277.21 236.258 L 264.84 230.275 Z " fill="rgb(255,255,255)"/><path d=" M 291.792 230.275 C 291.792 230.275 296.982 231.068 296.829 234.825 C 296.829 234.825 296.022 249.893 290.206 247.18 C 290.206 247.18 279.436 236.258 279.436 236.258 L 291.792 230.275 Z " fill="rgb(255,255,255)"/><circle vector-effect="non-scaling-stroke" cx="278.03081611116943" cy="251.1875044305929" r="2.8802101864127962" fill="rgb(255,255,255)"/><circle vector-effect="non-scaling-stroke" cx="278.03081611116943" cy="261.37259552457436" r="2.8802101864127962" fill="rgb(255,255,255)"/><circle vector-effect="non-scaling-stroke" cx="278.03081611116943" cy="271.55768661855586" r="2.8802101864127962" fill="rgb(255,255,255)"/><g opacity="0.18"><path d=" M 558.844 202.085 C 558.844 233.331 542.136 262.192 515.039 277.752 C 487.942 293.311 454.593 293.194 427.607 277.443 L 431.155 280.671 L 388.355 295.365 L 402.854 255.737 C 379.395 225.645 378.214 183.799 399.938 152.431 C 421.662 121.063 461.25 107.451 497.67 118.828 C 534.091 130.204 558.893 163.929 558.9 202.085 L 558.844 202.085 Z " fill="rgb(239,95,64)"/></g><path d=" M 456.381 231.471 C 456.381 231.471 432.393 231.958 420.135 251.981 C 420.135 251.981 411.787 280.671 412.621 286.766 L 431.155 280.699 C 440.394 285.861 454.266 289.813 474.01 288.922 C 511.203 287.267 527.955 268.413 527.955 268.413 C 527.955 268.413 524.017 241.712 502.005 235.646 C 479.993 229.579 456.381 231.471 456.381 231.471 Z " fill="rgb(239,95,64)"/><path d=" M 458.19 211.045 C 458.19 211.045 457.884 228.007 456.381 231.471 C 456.381 231.471 468.166 245.524 481.774 235.854 L 482.679 231.61 C 482.679 231.61 480.272 219.825 481.774 209.543 C 483.277 199.26 458.19 211.045 458.19 211.045 Z " fill="rgb(247,175,135)"/><linearGradient id="_lgradient_26" x1="0" y1="0.5" x2="0.09050830169417498" y2="-0.49589570102718894" gradientTransform="matrix(23.598,0,0,17.226,457.981,208.235)" gradientUnits="userSpaceOnUse"><stop offset="0%" stop-opacity="1" style="stop-color:rgb(0,0,0)"/><stop offset="0%" stop-opacity="1" style="stop-color:rgb(0,0,0)"/></linearGradient><path d=" M 457.981 213.272 C 457.981 213.272 460.361 224.667 470.434 225.46 C 470.434 225.46 481.329 222.845 481.329 222.845 L 481.58 208.235 L 457.981 213.272 Z " fill="url(#_lgradient_26)"/><path d=" M 442.871 176.594 C 441.699 175.745 440.211 175.46 438.808 175.815 C 438.271 176.039 437.794 176.387 437.416 176.831 C 435.301 179.071 435.413 182.605 436.025 185.624 C 436.402 187.318 436.914 188.979 437.556 190.592 C 437.814 191.341 438.194 192.041 438.683 192.665 C 440.171 194.46 442.857 194.696 445.153 194.432 C 446.553 194.432 447.868 193.759 448.687 192.623 C 448.897 192.143 449.019 191.63 449.049 191.107 C 449.633 185.026 448.2 179.822 442.871 176.594 Z " fill="rgb(247,175,135)"/><path d=" M 500.377 179.071 C 502.089 177.874 504.315 176.956 506.235 177.777 C 507.765 178.549 508.771 180.074 508.879 181.784 C 508.975 183.471 508.679 185.156 508.016 186.71 C 507.361 188.707 506.326 190.559 504.969 192.164 C 503.584 193.753 501.641 194.749 499.543 194.947 C 497.404 195.107 495.363 194.025 494.297 192.164 C 493.786 190.941 493.549 189.621 493.601 188.296 C 493.505 187.272 493.624 186.239 493.949 185.263 C 494.77 183.245 498.624 180.281 500.377 179.071 Z " fill="rgb(247,175,135)"/><path d=" M 498.61 184.79 C 496.44 202.975 486.324 217.947 471.186 217.947 C 456.047 217.947 443.775 203.101 443.775 184.79 C 443.775 166.479 453.515 145.83 468.653 145.83 C 483.792 145.83 503.035 147.597 498.61 184.79 Z " fill="rgb(247,175,135)"/><path d=" M 443.789 176.427 L 444.039 180.49 C 444.039 181.13 444.248 181.882 444.874 182.062 C 445.5 182.243 446.113 181.116 446.127 180.281 C 446.127 176.942 445.083 173.171 447.156 170.542 C 447.675 170.028 448.141 169.464 448.548 168.858 C 449.41 167.119 448.102 164.906 448.882 163.125 C 449.341 162.11 450.356 161.484 451.094 160.635 C 451.998 159.309 452.689 157.848 453.139 156.308 C 453.307 155.789 453.633 155.337 454.071 155.014 C 454.49 154.839 454.93 154.722 455.379 154.666 C 457.077 154.234 458.079 152.495 459.554 151.591 C 460.889 150.926 462.382 150.647 463.867 150.784 C 469.669 150.965 475.708 153.024 481.079 150.784 C 483.286 153.92 486.64 156.06 490.415 156.739 C 490.73 156.757 491.034 156.863 491.292 157.045 C 491.54 157.344 491.703 157.705 491.765 158.089 C 492.319 159.312 493.103 160.417 494.074 161.344 C 497.428 165.519 497.358 171.293 497.108 176.65 L 496.718 185.151 L 499.682 180.17 C 499.987 179.589 500.386 179.062 500.864 178.612 C 501.407 178.153 502.131 177.874 502.465 177.22 C 502.605 176.894 502.686 176.545 502.701 176.191 L 503.425 168.9 C 503.637 167.586 503.59 166.244 503.286 164.948 C 503.035 164.141 502.59 163.404 502.339 162.597 C 502.061 161.115 502.018 159.598 502.214 158.102 C 502.409 156.587 501.931 155.062 500.906 153.928 C 501.88 150.672 502.799 147.222 502.033 143.91 C 501.268 140.599 498.193 137.579 494.84 138.08 C 494.332 138.215 493.803 138.253 493.281 138.191 C 492.842 138.041 492.439 137.799 492.099 137.482 C 489.759 135.639 486.905 134.57 483.931 134.421 C 480.428 134.198 476.915 134.198 473.412 134.421 C 465.537 135.075 457.272 133.447 449.911 136.285 C 448.139 136.939 446.506 137.921 445.097 139.179 C 443.643 140.663 442.394 142.333 441.382 144.147 C 440.817 144.953 440.398 145.853 440.143 146.804 C 440.025 147.849 440.025 148.904 440.143 149.949 C 440.143 153.441 438.363 156.906 438.947 160.315 C 439.156 161.581 439.67 162.764 439.851 164.03 C 439.949 165.183 439.949 166.342 439.851 167.494 C 439.755 170.411 440.267 173.316 441.354 176.024 C 441.535 176.483 441.827 177.012 442.328 177.053 C 442.829 177.095 443.344 175.885 443.789 176.427 Z " fill="rgb(64,64,64)"/><path d=" M 447.782 206.983 C 448.158 208.665 448.738 210.296 449.508 211.839 C 451.485 215.193 454.6 217.726 458.287 218.976 C 461.953 220.195 465.792 220.811 469.655 220.799 C 474.839 220.939 480.025 220.632 485.155 219.881 C 486.992 219.617 486.853 219.213 488.328 218.114 C 490.707 216.333 493.434 213.16 493.894 210.225 C 495.368 201.5 497.831 189.353 497.469 180.504 C 495.104 184.873 495.132 194.223 491.695 197.813 C 489.831 199.747 487.048 200.415 484.404 200.846 C 475.899 202.255 467.211 202.137 458.747 200.499 C 456.186 200.208 453.767 199.173 451.79 197.521 C 448.784 194.557 449.007 189.785 448.353 185.611 C 448.088 183.774 447.379 181.033 445.361 180.421 C 444.749 184.08 445.584 188.087 445.667 191.774 C 445.792 196.908 446.501 202.01 447.782 206.983 Z " fill="rgb(64,64,64)"/><linearGradient id="_lgradient_27" x1="0" y1="0.5" x2="0.9746876245738789" y2="0.2764289050379516" gradientTransform="matrix(6.812,0,0,10.776,438.34,180.448)" gradientUnits="userSpaceOnUse"><stop offset="100%" stop-opacity="1" style="stop-color:rgb(0,0,0)"/><stop offset="100%" stop-opacity="1" style="stop-color:rgb(0,0,0)"/></linearGradient><path d=" M 440.992 182.424 C 440.998 182.006 440.947 181.59 440.839 181.186 C 440.723 180.774 440.362 180.479 439.935 180.448 C 439.49 180.448 439.17 180.866 438.961 181.255 C 438.213 182.906 438.138 184.783 438.752 186.487 C 439.208 188.226 440.281 189.739 441.771 190.745 C 442.515 191.299 443.509 191.38 444.332 190.954 C 445.723 189.993 445.18 187.183 443.928 186.404 C 443.163 185.931 442.537 185.986 441.938 185.151 C 441.366 184.353 441.037 183.406 440.992 182.424 L 440.992 182.424 Z " fill="url(#_lgradient_27)"/><linearGradient id="_lgradient_28" x1="0" y1="0.5" x2="0.9746576908542806" y2="0.7237015548864194" gradientTransform="matrix(6.808,0,0,10.776,498.726,180.448)" gradientUnits="userSpaceOnUse"><stop offset="100%" stop-opacity="1" style="stop-color:rgb(0,0,0)"/><stop offset="100%" stop-opacity="1" style="stop-color:rgb(0,0,0)"/></linearGradient><path d=" M 502.882 182.424 C 502.876 182.006 502.928 181.59 503.035 181.186 C 503.151 180.774 503.513 180.479 503.939 180.448 C 504.385 180.448 504.705 180.866 504.913 181.255 C 505.662 182.906 505.737 184.783 505.122 186.487 C 504.666 188.226 503.593 189.739 502.103 190.745 C 501.36 191.299 500.366 191.38 499.543 190.954 C 498.151 189.993 498.708 187.183 499.946 186.404 C 500.711 185.931 501.338 185.986 501.936 185.151 C 502.508 184.353 502.837 183.406 502.882 182.424 L 502.882 182.424 Z " fill="url(#_lgradient_28)"/><path d=" M 487.354 224.528 C 485.96 223.897 484.423 223.647 482.901 223.805 C 473.509 224.055 463.797 226.003 454.962 222.817 C 453.447 224.287 452.336 226.122 451.734 228.146 C 450.83 232.417 454.433 236.383 458.329 238.331 C 464.911 241.642 472.619 241.573 479.966 241.114 C 482.846 240.947 485.963 240.655 488.105 238.707 C 491.514 235.673 491.695 226.963 487.354 224.528 Z " fill="rgb(239,95,64)"/><linearGradient id="_lgradient_29" x1="0" y1="0.5" x2="0.258009366818741" y2="1.4661424152958986" gradientTransform="matrix(51.051,0,0,55.42,412.594,231.318)" gradientUnits="userSpaceOnUse"><stop offset="100%" stop-opacity="1" style="stop-color:rgb(0,0,0)"/><stop offset="100%" stop-opacity="1" style="stop-color:rgb(0,0,0)"/></linearGradient><path d=" M 451.553 231.318 C 451.553 231.318 448.52 238.567 463.644 238.874 C 463.644 238.874 448.52 239.18 444.29 242.505 C 440.06 245.831 429.471 250.965 428.873 257.63 C 428.275 264.295 424.629 282.118 424.629 282.118 L 412.594 286.738 L 420.107 251.953 C 427.305 241.042 438.679 233.579 451.553 231.318 Z " fill="url(#_lgradient_29)"/></g></g></svg>