<?xml version="1.0" encoding="utf-8"?>
<!-- Generator: Adobe Illustrator 22.0.1, SVG Export Plug-In . SVG Version: 6.00 Build 0)  -->
<svg version="1.1" id="_x23_学生LT" xmlns="http://www.w3.org/2000/svg" xmlns:xlink="http://www.w3.org/1999/xlink" x="0px"
	 y="0px" viewBox="0 0 1366 555" style="enable-background:new 0 0 1366 555;" xml:space="preserve">
<style type="text/css">
	.st0{fill:#E0684B;}
	.st1{fill:#4B4B4B;}
</style>
<path id="T" class="st0" d="M1073.5,251.7l-10.5-66.5c-0.7-4.6,1.7-6.5,7.2-5.6l157.4,19.4c3.2,0.7,4.8,2.7,4.6,6.1l-3.1,27.1
	c-0.7,3.2-2.5,4.9-5.4,5.1l-142.8,20C1076.5,257.9,1074,256,1073.5,251.7z M1122.9,389.9l9.5-141.7c0.3-3.1,2.4-4.5,6.1-4.3l32,3.1
	c3.2,0.7,4.8,2.9,4.6,6.7l0.3,141.2c0,3.8-1.6,5.2-4.9,4.3l-42.2-2.8C1124.5,395.8,1122.7,393.7,1122.9,389.9z"/>
<path id="L" class="st0" d="M902.6,393l-15.4-205.2c-0.3-4.6,1.5-7.3,5.6-8.2l64.5-10.5c4.1-0.7,5.8,1.3,5.1,5.9l-23.5,174.2
	l110.3-19.4c4.9-0.7,6.9,1.9,5.9,7.7l-7.9,51.2c-0.9,3.4-3,5.2-6.4,5.4l-131.3,5.1C905.2,399.5,902.9,397.4,902.6,393z"/>
<path id="Sei" class="st1" d="M765.5,352.6H865V390H626.5v-37.4h99v-45h-67.8V271h67.8v-40.2h-50.1c-8.5,15.5-16.1,27.4-22.8,35.6
	c-9.6-8.2-21.1-15.9-34.5-23c9.9-10.6,18.9-24.1,27-40.7c8.1-16.5,14.5-33.9,19.1-51.9l39.4,9c-2.4,9-6.2,20.4-11.5,34h33.5V148
	h39.9v45.8h85.7v37.1h-85.7v40.2h75.2v36.6h-75.2L765.5,352.6L765.5,352.6z"/>
<path id="Gaku" class="st1" d="M601.5,296.5v34.8h-98.8v26.4c0,9.6-1.4,16.9-4.1,22s-7.5,9-14.3,11.8c-10.1,3.8-27.7,5.6-53,5.6
	c-2.6-11.8-7.6-24.1-15.1-36.8c9.7,0.5,23.3,0.8,40.7,0.8c2.6,0,4.3-0.3,5.2-1c0.9-0.7,1.4-1.9,1.4-3.6v-25.1h-98.2v-34.8h98.2V281
	h16.6c4.6-3.2,8.9-6.6,12.8-10h-79.1v-32.8h112.6l8.2-1.8l23.8,18.2c-14.8,16.7-30.5,30.7-47.1,42L601.5,296.5L601.5,296.5z
	 M403.2,221.8v34h-35.8v-67.3h33.3c-4.4-8-9.7-15.9-15.9-23.8l32.5-14.3c11.8,13,19.5,24.1,23.3,33.5l-10.2,4.6h34.5
	c-3.9-10.2-8.9-20.1-14.8-29.7l33.8-12.5c9.9,13.3,16.6,25.6,20.2,36.8l-14.3,5.4h36.1c8.9-13.6,15.5-26.5,20-38.6l41.7,11.8
	c-8,11.4-14.6,20.4-19.7,26.9h31.7v67.3H562v-34L403.2,221.8L403.2,221.8z"/>
<path id="HashRT" class="st1" d="M184.1,208.1c0,0-16.8-10.4-23-8.9s-8.5,72.4-3.7,76.5s26.6,0,26.6,0L184.1,208.1L184.1,208.1z"/>
<path id="HashRM" class="st1" d="M173.8,309.3h-28.4c0,0-3.6,25.4,0,28.7s53.6,9.5,53.6,9.5L173.8,309.3z"/>
<path id="HashRB" class="st1" d="M169.3,337.9c-5.1-1.1-8.7,52.4-8.7,52.4s17.4,5.5,23.2,0s14.1-52.4,14.1-52.4
	S174.5,339.1,169.3,337.9z"/>
<path id="HashLT_1_" class="st1" d="M276.1,239.2c0,0,6.3-49.5,12.1-53.4c5.8-3.9,26.2,0.9,29.5,7.1s-10.3,78.9-10.3,78.9
	L276.1,239.2z"/>
<path id="HashLB" class="st1" d="M297.2,312.3c0,0,29.1-6.1,33.9,0s-1.2,63.6-5.3,63.6s-61.9-12.5-61.9-12.5L297.2,312.3z"/>
<path id="HashLT" class="st0" d="M351,241.1l-114.9-24.5l17.2-50.8c1.3-3.8,0.2-5.7-3.4-5.8l-56.3-1.7c-3.6,0.1-5.6,2-6.1,6
	l-20.8,176.3c-0.4,3.8,1.2,5.9,4.8,6.3l79,12.2l-6.6,42.3c-0.4,3.3,1,5.3,4.2,6.1l37,5.7c2.8,1,4.3-0.2,4.6-3.5l5.5-64.7l9.5-26.4
	c1.8-4.7,0.6-7.2-3.7-7.5l-2.9-0.1l2.2-26c0.4-3.3-0.7-5.4-3.5-6.2l-7.5-1.4l55.2-2.9c2.6,0.1,4.3-1.3,5.1-4.1l4.8-23.7
	C355,243.8,353.8,241.9,351,241.1z M258.1,310.3l-53.5-0.9l9.7-28.6c0.8,0.3,1.8,0.4,2.9,0.4l45.8-2.4L258.1,310.3z"/>
</svg>
