<?xml version="1.0" encoding="utf-8"?>
<!-- Generator: Adobe Illustrator 22.0.1, SVG Export Plug-In . SVG Version: 6.00 Build 0)  -->
<svg version="1.1" id="レイヤー_1" xmlns="http://www.w3.org/2000/svg" xmlns:xlink="http://www.w3.org/1999/xlink" x="0px"
	 y="0px" viewBox="0 0 200 200" style="enable-background:new 0 0 200 200;" xml:space="preserve">
<style type="text/css">
	.st0{fill:#4B4B4B;}
	.st1{fill:#E0684B;}
</style>
<g>
	<path id="HashRT" class="st0" d="M51.6,42.1c0,0-12.5-7.7-17.1-6.6c-4.6,1.1-6.3,53.9-2.8,56.9s19.8,0,19.8,0L51.6,42.1L51.6,42.1z
		"/>
	<path id="HashRM" class="st0" d="M43.9,117.4H22.8c0,0-2.7,18.9,0,21.4c2.7,2.5,39.9,7.1,39.9,7.1L43.9,117.4z"/>
	<path id="HashRB" class="st0" d="M40.5,138.7c-3.8-0.8-6.5,39-6.5,39s13,4.1,17.3,0c4.3-4.1,10.5-39,10.5-39S44.4,139.6,40.5,138.7
		z"/>
	<path id="HashLT_1_" class="st0" d="M120,65.2c0,0,4.7-36.8,9-39.8c4.3-2.9,19.5,0.7,22,5.3s-7.7,58.7-7.7,58.7L120,65.2z"/>
	<path id="HashLB" class="st0" d="M135.7,119.6c0,0,21.7-4.5,25.2,0c3.6,4.5-0.9,47.3-3.9,47.3s-46.1-9.3-46.1-9.3L135.7,119.6z"/>
	<path id="HashLT" class="st1" d="M175.8,66.6L90.3,48.4l12.8-37.8c1-2.8,0.1-4.2-2.5-4.3L58.6,5c-2.7,0.1-4.2,1.5-4.5,4.5
		L38.6,140.7c-0.3,2.8,0.9,4.4,3.6,4.7l58.8,9.1L96.1,186c-0.3,2.5,0.7,3.9,3.1,4.5l27.5,4.2c2.1,0.7,3.2-0.1,3.4-2.6l4.1-48.2
		l7.1-19.7c1.3-3.5,0.4-5.4-2.8-5.6l-2.2-0.1l1.6-19.4c0.3-2.5-0.5-4-2.6-4.6l-5.6-1l41.1-2.2c1.9,0.1,3.2-1,3.8-3.1l3.6-17.6
		C178.8,68.6,177.9,67.2,175.8,66.6z M106.6,118.1l-39.8-0.7L74,96.2c0.6,0.2,1.3,0.3,2.2,0.3l34.1-1.8L106.6,118.1z"/>
</g>
</svg>
